<?xml version="1.0" encoding="iso-8859-1"?>
<!-- Generator: Adobe Illustrator 19.0.0, SVG Export Plug-In . SVG Version: 6.00 Build 0)  -->
<svg version="1.1" id="Capa_1" xmlns="http://www.w3.org/2000/svg" xmlns:xlink="http://www.w3.org/1999/xlink" x="0px" y="0px"
	 viewBox="0 0 511.999 511.999" style="enable-background:new 0 0 511.999 511.999;" xml:space="preserve">
<g>
	<g>
		<path d="M107.011,254.929c-1.861-1.86-4.44-2.93-7.07-2.93s-5.21,1.069-7.08,2.93c-1.859,1.86-2.92,4.44-2.92,7.07
			s1.061,5.21,2.92,7.069c1.87,1.86,4.44,2.931,7.08,2.931c2.629,0,5.209-1.07,7.07-2.931c1.86-1.859,2.93-4.439,2.93-7.069
			S108.872,256.789,107.011,254.929z"/>
	</g>
</g>
<g>
	<g>
		<path d="M190.531,258.527l-19.206-10.46c-14.734-8.023-23.888-23.432-23.888-40.21v-39.858c0.001-5.522-4.477-10-9.999-10
			c-5.522,0-10,4.478-10,10v39.858c0,24.107,13.151,46.246,34.322,57.774l19.205,10.46c1.52,0.827,3.158,1.22,4.774,1.22
			c3.543,0,6.977-1.888,8.791-5.219C197.172,267.241,195.381,261.168,190.531,258.527z"/>
	</g>
</g>
<g>
	<g>
		<path d="M193.935,335.217c0-8.724,5.622-16.467,13.989-19.27c30.794-10.317,51.484-39.083,51.484-71.58
			c0.003-28.821-16.241-53.91-40.05-66.62c5.208-5.856,8.381-13.562,8.381-21.997c0-6.807-2.056-13.356-5.945-18.94l-8.527-12.245
			c-5.774-8.291-13.268-15.03-21.815-19.878c12.753-9.886,20.986-25.339,20.986-42.687v-8c0-29.775-24.225-54-54-54
			c-29.775,0-54,24.225-54,54v8c0,15.626,6.679,29.717,17.324,39.586c-18.816,9.108-31.824,28.395-31.824,50.664v70.749
			c0,5.522,4.478,10,10,10c5.522,0,10-4.478,10-10v-70.75c0-19.988,16.262-36.25,36.25-36.25h12.25c0.028,0,0.056-0.002,0.084-0.002
			c0.014,0,0.028,0.002,0.042,0.002c15.257,0,29.57,7.475,38.29,19.995l8.527,12.246c1.542,2.214,2.357,4.811,2.357,7.51
			c0,7.247-5.896,13.144-13.144,13.144h-0.888c-0.896,0-1.761,0.129-2.588,0.351c-2.366-0.225-4.759-0.351-7.183-0.351
			c-5.522,0-10,4.478-10,10c0,5.522,4.478,10,10,10c30.588,0,55.474,24.886,55.474,55.474c0,23.889-15.206,45.033-37.837,52.615
			c-16.53,5.537-27.637,20.902-27.637,38.234v16.782h-64v-54.5c0-5.522-4.478-10-10-10c-5.522,0-10,4.478-10,10v64.5v140
			c0,5.522,4.478,10,10,10H222.06c5.522,0,10-4.478,10-10c0-23.503-16.264-43.27-38.125-48.663v-91.337V335.217z M158.438,95.999
			c-18.748,0-34-15.252-34-34v-8c0-18.748,15.252-34,34-34s34,15.252,34,34v8C192.438,80.747,177.186,95.999,158.438,95.999z
			 M151.938,371.999h22v79.875h-22V371.999z M131.938,491.999h-22v-20.125h22V491.999z M131.938,451.874h-22v-79.875h22V451.874z
			 M210.355,491.999h-30.294h-28.125v-20.125h30C195.045,471.874,206.224,480.289,210.355,491.999z"/>
	</g>
</g>
<g>
	<g>
		<path d="M377.31,169.451c-9.041,0-17.86,2.834-25.246,7.969c-7.386-5.135-16.205-7.969-25.246-7.969
			c-24.678,0-44.754,20.477-44.754,45.646c0,14.396,10.777,32.11,32.949,54.157c15.285,15.198,30.344,26.752,30.978,27.236
			c1.792,1.37,3.933,2.056,6.073,2.056c2.14,0,4.281-0.686,6.073-2.056c0.634-0.484,15.692-12.038,30.978-27.236
			c22.172-22.047,32.949-39.762,32.949-54.157C422.063,189.928,401.987,169.451,377.31,169.451z M352.062,275.806
			c-22.511-18.307-49.997-46.415-49.997-60.708c0-14.142,11.104-25.646,24.754-25.646c6.822,0,13.178,2.817,17.896,7.932
			c1.894,2.053,4.559,3.22,7.351,3.22c2.792,0,5.457-1.167,7.351-3.22c4.718-5.114,11.073-7.932,17.896-7.932
			c13.649,0,24.754,11.505,24.754,25.646C402.063,229.366,374.573,257.484,352.062,275.806z"/>
	</g>
</g>
<g>
</g>
<g>
</g>
<g>
</g>
<g>
</g>
<g>
</g>
<g>
</g>
<g>
</g>
<g>
</g>
<g>
</g>
<g>
</g>
<g>
</g>
<g>
</g>
<g>
</g>
<g>
</g>
<g>
</g>
</svg>
