<svg height="512" viewBox="0 0 64 64" width="512" xmlns="http://www.w3.org/2000/svg"><g id="Pollution-Environment-Straw-Fish-Waste"><path d="m54.553 40.9a1 1 0 0 0 1.447-.9v-4a1 1 0 0 0 -.553-.9l-.211-.1.211-.1a1 1 0 0 0 .553-.9v-4a1 1 0 0 0 -1.447-.895l-5.522 2.761-3.307-1.889a15.02 15.02 0 0 0 -7.442-1.977h-.282c-3.639 0-9.113 5.666-9.726 6.312a1 1 0 0 0 0 1.376c.613.646 6.087 6.312 9.726 6.312h.282a15.02 15.02 0 0 0 7.442-1.977l3.307-1.889zm-.553-7.518-1.447.723a1 1 0 0 0 0 1.79l1.447.723v1.764l-4-2v-2.764l4-2zm-9.268 4.905a13.016 13.016 0 0 1 -6.45 1.713h-.282c-1.042 0-2.577-.863-4.113-2h3.113v-2h-5.537c-.375-.34-.734-.678-1.061-1 2.2-2.169 5.709-5 7.6-5h.282a13.016 13.016 0 0 1 6.45 1.713l3.266 1.868v2.838z"/><path d="m35 32h2v2h-2z"/><path d="m39.707 31.293-1.425 1.4a3.461 3.461 0 0 1 .718 2.307 3.478 3.478 0 0 1 -.707 2.293l1.414 1.414a5.041 5.041 0 0 0 1.211-2.707h3.082v-2h-3.082a5.041 5.041 0 0 0 -1.211-2.707z"/><path d="m23.261 33.109a1 1 0 0 0 .484-1.329l-1.793-3.844a1 1 0 0 0 -1.329-.484l-8.752 4.081a4.955 4.955 0 0 0 -2.518 2.681l-.287-1.631 5.434-7.77a1 1 0 0 0 -.246-1.392l-3.47-2.43a1 1 0 0 0 -1.393.245l-5.538 7.908a4.883 4.883 0 0 0 -.79 1.811 4.982 4.982 0 0 0 -.038 1.929l2.214 12.588-3.939 10.818a1 1 0 0 0 .6 1.281l3.759 1.368a.995.995 0 0 0 .765-.033 1 1 0 0 0 .516-.564l.65-1.786a.985.985 0 0 0 .47.134 1.02 1.02 0 0 0 .173-.015l3.94-.69a1 1 0 0 0 .813-1.158l-1.556-8.827 3.235-8.885zm-1.752-1.389-4.6 2.143-.947-2.032 4.6-2.143zm-7.356.956.948 2.032-1 .469-1.609-1.7c.077-.045.147-.1.228-.135zm-9.153-.136c0-.014 0-.027 0-.04l2.14.634.239 1.358-1.979.348zm6.185 2.468 1.536 1.619-.473 1.3-1.879-.684.8-2.2c0-.015.007-.024.011-.035zm-.73-11.808 1.833 1.283-2.905 4.157-1.836-1.286zm-4.055 5.793 1.837 1.287-.634.907-2.243-.664a2.623 2.623 0 0 1 .13-.231zm-.654 7.817 1.971-.348.261 1.485-1.37 3.764zm-.346 19.908-1.879-.684 6.159-16.915 1.879.685zm5.439-2.53-1.971.345-.179-1 1.371-3.765z"/><path d="m34 47h2v2h-2z"/><path d="m18 43h4v2h-4z"/><path d="m16 58h2v2h-2z"/><path d="m58.7 3.1a8.971 8.971 0 0 0 -4.151-1.1 6.288 6.288 0 0 0 -3.749 1.15 4.363 4.363 0 0 1 -2.7.85 4.355 4.355 0 0 1 -2.7-.85 6.687 6.687 0 0 0 -7.5 0 4.348 4.348 0 0 1 -2.689.85 4.349 4.349 0 0 1 -2.694-.85 6.686 6.686 0 0 0 -7.5 0 4.353 4.353 0 0 1 -2.692.85 4.353 4.353 0 0 1 -2.694-.85 6.28 6.28 0 0 0 -3.749-1.15 6.279 6.279 0 0 0 -3.748 1.15 4.354 4.354 0 0 1 -2.695.85 6.983 6.983 0 0 1 -3.291-.9 8.956 8.956 0 0 0 -4.148-1.1v2a6.984 6.984 0 0 1 3.292.9 8.948 8.948 0 0 0 4.147 1.1 6.28 6.28 0 0 0 3.749-1.15 4.353 4.353 0 0 1 2.694-.85 4.349 4.349 0 0 1 2.694.85 6.28 6.28 0 0 0 3.749 1.15 6.277 6.277 0 0 0 3.748-1.15 4.7 4.7 0 0 1 5.389 0 6.283 6.283 0 0 0 3.749 1.15 6.277 6.277 0 0 0 3.748-1.15 4.7 4.7 0 0 1 5.389 0 6.287 6.287 0 0 0 3.752 1.15 6.293 6.293 0 0 0 3.752-1.15 4.361 4.361 0 0 1 2.7-.85 7 7 0 0 1 3.3.9 8.974 8.974 0 0 0 4.148 1.1v-2a7 7 0 0 1 -3.3-.9z"/><path d="m11 12a3 3 0 1 0 -3 3 3 3 0 0 0 3-3zm-4 0a1 1 0 1 1 1 1 1 1 0 0 1 -1-1z"/><path d="m18 10h6v2h-6z"/><path d="m26 10h2v2h-2z"/><path d="m40 13h2v2h-2z"/><path d="m50 11h4v2h-4z"/><path d="m56 11h2v2h-2z"/><path d="m14 16h2v2h-2z"/><path d="m28 14h2v2h-2z"/><path d="m54.7 49.33a.987.987 0 0 0 -.319-.33l-1.669-1.1-1.382-2.4a1 1 0 0 0 -1.366-.366l-3.464 2a1 1 0 0 0 -.366 1.366l1.382 2.394.12 2a.989.989 0 0 0 .132.44l4.5 7.8a1 1 0 0 0 1.366.366l5.2-3a1 1 0 0 0 .366-1.366zm-1.2 9.928-3.882-6.723-.12-2a.989.989 0 0 0 -.132-.44l-1-1.732 1.732-1 1 1.732a1 1 0 0 0 .315.335l1.669 1.1 3.882 6.723z"/><path d="m29 26a3 3 0 1 0 -3-3 3 3 0 0 0 3 3zm0-4a1 1 0 1 1 -1 1 1 1 0 0 1 1-1z"/><path d="m25 51a3 3 0 1 0 3 3 3 3 0 0 0 -3-3zm0 4a1 1 0 1 1 1-1 1 1 0 0 1 -1 1z"/><path d="m34 56h6v2h-6z"/><path d="m42 56h2v2h-2z"/><path d="m34 51h2v2h-2z"/><path d="m48 20h6v2h-6z"/><path d="m56 20h2v2h-2z"/></g></svg>